<svg width="231" height="219" viewBox="0 0 231 219" fill="none" xmlns="http://www.w3.org/2000/svg">
<circle cx="165.114" cy="62.7501" r="16.7659" transform="rotate(37.353 165.114 62.7501)" fill="#FF5722"/>
<circle cx="130.805" cy="51.3277" r="13.4127" transform="rotate(37.353 130.805 51.3277)" fill="#FF5722"/>
<circle cx="99.1265" cy="54.1456" r="10.0595" transform="rotate(37.353 99.1265 54.1456)" fill="#FF5722"/>
<circle cx="74.7216" cy="61.2501" r="6.70637" transform="rotate(37.353 74.7216 61.2501)" fill="#FF5722"/>
<circle cx="55.9915" cy="71.4203" r="3.35318" transform="rotate(37.353 55.9915 71.4203)" fill="#FF5722"/>
<circle cx="16.7659" cy="16.7659" r="16.7659" transform="matrix(-0.704051 0.71015 0.71015 0.704051 63.6802 11.2839)" fill="#FF5722"/>
<circle cx="13.4127" cy="13.4127" r="13.4127" transform="matrix(-0.704051 0.71015 0.71015 0.704051 96.1154 0)" fill="#FF5722"/>
<circle cx="10.0595" cy="10.0595" r="10.0595" transform="matrix(-0.704051 0.71015 0.71015 0.704051 127.902 3.1825)" fill="#FF5722"/>
<circle cx="6.70637" cy="6.70637" r="6.70637" transform="matrix(-0.704051 0.71015 0.71015 0.704051 153.071 11.6097)" fill="#FF5722"/>
<circle cx="3.35318" cy="3.35318" r="3.35318" transform="matrix(-0.704051 0.71015 0.71015 0.704051 173.041 23.8533)" fill="#FF5722"/>
<circle cx="36.7837" cy="98.6561" r="16.7659" transform="rotate(-86.2512 36.7837 98.6561)" fill="#FF5722"/>
<circle cx="46.2585" cy="133.553" r="13.4127" transform="rotate(-86.2512 46.2585 133.553)" fill="#FF5722"/>
<circle cx="66.1383" cy="158.378" r="10.0595" transform="rotate(-86.2512 66.1383 158.378)" fill="#FF5722"/>
<circle cx="85.5624" cy="174.772" r="6.70637" transform="rotate(-86.2512 85.5624 174.772)" fill="#FF5722"/>
<circle cx="104.399" cy="184.743" r="3.35318" transform="rotate(-86.2512 104.399 184.743)" fill="#FF5722"/>
<circle cx="135.956" cy="188.115" r="16.7659" transform="rotate(157.129 135.956 188.115)" fill="#FF5722"/>
<circle cx="16.7659" cy="16.7659" r="16.7659" transform="matrix(0.981129 0.193355 0.193355 -0.981129 50.0575 211.622)" fill="#FF5722"/>
<circle cx="13.4127" cy="13.4127" r="13.4127" transform="matrix(0.981129 0.193355 0.193355 -0.981129 22.708 190.853)" fill="#FF5722"/>
<circle cx="10.0595" cy="10.0595" r="10.0595" transform="matrix(0.981129 0.193355 0.193355 -0.981129 7.76639 162.617)" fill="#FF5722"/>
<circle cx="6.70637" cy="6.70637" r="6.70637" transform="matrix(0.981129 0.193355 0.193355 -0.981129 0.855034 136.99)" fill="#FF5722"/>
<circle cx="3.35318" cy="3.35318" r="3.35318" transform="matrix(0.981129 0.193355 0.193355 -0.981129 0 113.581)" fill="#FF5722"/>
<circle cx="162.908" cy="164.009" r="13.4127" transform="rotate(157.129 162.908 164.009)" fill="#FF5722"/>
<circle cx="176.194" cy="135.113" r="10.0595" transform="rotate(157.129 176.194 135.113)" fill="#FF5722"/>
<circle cx="182.147" cy="110.402" r="6.70637" transform="rotate(157.129 182.147 110.402)" fill="#FF5722"/>
<circle cx="182.621" cy="89.0939" r="3.35318" transform="rotate(157.129 182.621 89.0939)" fill="#FF5722"/>
<circle cx="16.7659" cy="16.7659" r="16.7659" transform="matrix(-0.266754 -0.963765 -0.963765 0.266754 231 125.632)" fill="#FF5722"/>
<circle cx="13.4127" cy="13.4127" r="13.4127" transform="matrix(-0.266754 -0.963765 -0.963765 0.266754 224.687 159.388)" fill="#FF5722"/>
<circle cx="10.0595" cy="10.0595" r="10.0595" transform="matrix(-0.266754 -0.963765 -0.963765 0.266754 206.139 185.398)" fill="#FF5722"/>
<circle cx="6.70637" cy="6.70637" r="6.70637" transform="matrix(-0.266754 -0.963765 -0.963765 0.266754 186.325 203.059)" fill="#FF5722"/>
<circle cx="3.35318" cy="3.35318" r="3.35318" transform="matrix(-0.266754 -0.963765 -0.963765 0.266754 165.78 214.312)" fill="#FF5722"/>
</svg>
