<svg width="488" height="349" viewBox="0 0 488 349" fill="none" xmlns="http://www.w3.org/2000/svg">
<circle cx="294.114" cy="62.75" r="16.7659" transform="rotate(37.353 294.114 62.75)" fill="#FF5722"/>
<circle cx="259.805" cy="51.3278" r="13.4127" transform="rotate(37.353 259.805 51.3278)" fill="#FF5722"/>
<circle cx="228.126" cy="54.1456" r="10.0595" transform="rotate(37.353 228.126 54.1456)" fill="#FF5722"/>
<circle cx="203.722" cy="61.2501" r="6.70637" transform="rotate(37.353 203.722 61.2501)" fill="#FF5722"/>
<circle cx="184.992" cy="71.4203" r="3.35318" transform="rotate(37.353 184.992 71.4203)" fill="#FF5722"/>
<circle cx="16.7659" cy="16.7659" r="16.7659" transform="matrix(-0.704051 0.71015 0.71015 0.704051 192.68 11.2839)" fill="#FF5722"/>
<circle cx="13.4127" cy="13.4127" r="13.4127" transform="matrix(-0.704051 0.71015 0.71015 0.704051 225.115 0)" fill="#FF5722"/>
<circle cx="10.0595" cy="10.0595" r="10.0595" transform="matrix(-0.704051 0.71015 0.71015 0.704051 256.902 3.18243)" fill="#FF5722"/>
<circle cx="6.70637" cy="6.70637" r="6.70637" transform="matrix(-0.704051 0.71015 0.71015 0.704051 282.071 11.6098)" fill="#FF5722"/>
<circle cx="3.35318" cy="3.35318" r="3.35318" transform="matrix(-0.704051 0.71015 0.71015 0.704051 302.041 23.8532)" fill="#FF5722"/>
<circle cx="165.784" cy="98.6561" r="16.7659" transform="rotate(-86.2512 165.784 98.6561)" fill="#FF5722"/>
<circle cx="175.259" cy="133.553" r="13.4127" transform="rotate(-86.2512 175.259 133.553)" fill="#FF5722"/>
<circle cx="195.138" cy="158.378" r="10.0595" transform="rotate(-86.2512 195.138 158.378)" fill="#FF5722"/>
<circle cx="214.562" cy="174.772" r="6.70637" transform="rotate(-86.2512 214.562 174.772)" fill="#FF5722"/>
<circle cx="233.399" cy="184.743" r="3.35318" transform="rotate(-86.2512 233.399 184.743)" fill="#FF5722"/>
<circle cx="264.956" cy="188.115" r="16.7659" transform="rotate(157.129 264.956 188.115)" fill="#FF5722"/>
<circle cx="16.7659" cy="16.7659" r="16.7659" transform="matrix(0.981129 0.193355 0.193355 -0.981129 179.057 211.622)" fill="#FF5722"/>
<circle cx="13.4127" cy="13.4127" r="13.4127" transform="matrix(0.981129 0.193355 0.193355 -0.981129 151.708 190.853)" fill="#FF5722"/>
<circle cx="10.0595" cy="10.0595" r="10.0595" transform="matrix(0.981129 0.193355 0.193355 -0.981129 136.766 162.617)" fill="#FF5722"/>
<circle cx="6.70637" cy="6.70637" r="6.70637" transform="matrix(0.981129 0.193355 0.193355 -0.981129 129.855 136.99)" fill="#FF5722"/>
<circle cx="3.35318" cy="3.35318" r="3.35318" transform="matrix(0.981129 0.193355 0.193355 -0.981129 129 113.581)" fill="#FF5722"/>
<circle cx="291.908" cy="164.009" r="13.4127" transform="rotate(157.129 291.908 164.009)" fill="#FF5722"/>
<circle cx="305.194" cy="135.113" r="10.0595" transform="rotate(157.129 305.194 135.113)" fill="#FF5722"/>
<circle cx="311.147" cy="110.402" r="6.70637" transform="rotate(157.129 311.147 110.402)" fill="#FF5722"/>
<circle cx="311.621" cy="89.0939" r="3.35318" transform="rotate(157.129 311.621 89.0939)" fill="#FF5722"/>
<circle cx="16.7659" cy="16.7659" r="16.7659" transform="matrix(-0.266754 -0.963765 -0.963765 0.266754 360 125.632)" fill="#FF5722"/>
<circle cx="13.4127" cy="13.4127" r="13.4127" transform="matrix(-0.266754 -0.963765 -0.963765 0.266754 353.687 159.388)" fill="#FF5722"/>
<circle cx="10.0595" cy="10.0595" r="10.0595" transform="matrix(-0.266754 -0.963765 -0.963765 0.266754 335.139 185.398)" fill="#FF5722"/>
<circle cx="6.70637" cy="6.70637" r="6.70637" transform="matrix(-0.266754 -0.963765 -0.963765 0.266754 315.325 203.059)" fill="#FF5722"/>
<circle cx="3.35318" cy="3.35318" r="3.35318" transform="matrix(-0.266754 -0.963765 -0.963765 0.266754 294.781 214.312)" fill="#FF5722"/>
<path d="M50.2424 301C46.2424 300.84 43.2824 299.8 41.3624 297.88C39.4744 295.928 38.5304 293.016 38.5304 289.144V239.464H26.8664C22.3864 239.464 19.2664 240.344 17.5064 242.104C15.7464 243.832 14.8664 246.936 14.8664 251.416V298.456C14.8664 300.152 14.0344 301 12.3704 301C10.6744 301 9.82638 300.152 9.82638 298.456V251.416C9.82638 245.528 11.1864 241.224 13.9064 238.504C16.6584 235.784 20.9784 234.424 26.8664 234.424H41.0744C42.7384 234.424 43.5704 235.256 43.5704 236.92V289.144C43.5704 291.576 44.0344 293.288 44.9624 294.28C45.9224 295.272 47.6984 295.832 50.2904 295.96C51.1544 295.992 51.7944 296.216 52.2104 296.632C52.6264 297.016 52.8344 297.656 52.8344 298.552C52.8344 300.248 51.9704 301.064 50.2424 301ZM5.79438 260.68C4.09838 260.68 3.25038 259.832 3.25038 258.136C3.25038 256.472 4.09838 255.64 5.79438 255.64H26.6744C28.3704 255.64 29.2184 256.472 29.2184 258.136C29.2184 259.832 28.3704 260.68 26.6744 260.68H5.79438ZM70.9259 301C65.9339 301 62.2699 299.848 59.9339 297.544C57.6299 295.208 56.4779 291.544 56.4779 286.552C56.4779 281.56 57.6459 277.896 59.9819 275.56C62.3179 273.224 65.9659 272.056 70.9259 272.056H92.7659C92.7019 267.832 91.7419 264.888 89.8859 263.224C88.0619 261.528 84.9419 260.68 80.5259 260.68H74.9579C70.8939 260.68 67.9179 261.112 66.0299 261.976C64.1419 262.84 62.9739 264.312 62.5259 266.392C62.3019 267.192 61.9979 267.784 61.6139 268.168C61.2619 268.52 60.6859 268.696 59.8859 268.696C59.0539 268.696 58.3979 268.472 57.9179 268.024C57.4699 267.544 57.3099 266.904 57.4379 266.104C57.8539 262.456 59.5019 259.8 62.3819 258.136C65.2939 256.472 69.4859 255.64 74.9579 255.64H80.5259C86.5099 255.64 90.8779 257.032 93.6299 259.816C96.4139 262.568 97.8059 266.936 97.8059 272.92V298.456C97.8059 300.152 96.9739 301 95.3099 301C93.6139 301 92.7659 300.152 92.7659 298.456V293.704C89.6939 298.568 84.2059 301 76.3019 301H70.9259ZM70.9259 295.96H76.3019C79.4059 295.96 82.1259 295.624 84.4619 294.952C86.8299 294.248 88.7339 293.128 90.1739 291.592C91.6139 290.056 92.4779 288.008 92.7659 285.448V277.096H70.9259C67.3739 277.096 64.9099 277.784 63.5339 279.16C62.1899 280.504 61.5179 282.968 61.5179 286.552C61.5179 290.104 62.1899 292.568 63.5339 293.944C64.9099 295.288 67.3739 295.96 70.9259 295.96ZM118.145 301C116.641 301 115.665 300.312 115.217 298.936L101.681 259.048C101.137 257.416 101.665 256.344 103.265 255.832C104.833 255.352 105.873 255.88 106.385 257.416L119.537 295.96H117.521L130.097 258.136C130.545 256.792 131.505 256.12 132.977 256.12C134.385 256.12 135.297 256.808 135.713 258.184L147.473 295.864H145.361L159.185 257.416C159.825 255.784 160.913 255.256 162.449 255.832C164.049 256.44 164.561 257.528 163.985 259.096L149.153 298.936C148.641 300.312 147.649 301 146.177 301C144.545 301 143.521 300.312 143.105 298.936L132.209 264.04H133.169L121.169 298.936C120.913 299.736 120.513 300.28 119.969 300.568C119.425 300.856 118.817 301 118.145 301ZM182.868 301C178.324 301 174.98 299.944 172.836 297.832C170.724 295.72 169.668 292.408 169.668 287.896V236.92C169.668 235.256 170.516 234.424 172.212 234.424C173.876 234.424 174.708 235.256 174.708 236.92V287.896C174.708 291 175.284 293.128 176.436 294.28C177.588 295.4 179.716 295.96 182.82 295.96C184.548 295.96 185.412 296.792 185.412 298.456C185.444 300.152 184.596 301 182.868 301ZM193.714 280.264V283.768C193.714 288.28 194.61 291.448 196.402 293.272C198.226 295.064 201.426 295.96 206.002 295.96H213.874C217.906 295.96 220.834 295.448 222.658 294.424C224.514 293.368 225.618 291.56 225.97 289C226.098 288.2 226.354 287.592 226.738 287.176C227.154 286.76 227.778 286.552 228.61 286.552C229.442 286.552 230.066 286.792 230.482 287.272C230.93 287.72 231.106 288.36 231.01 289.192C230.594 293.224 228.978 296.2 226.162 298.12C223.346 300.04 219.25 301 213.874 301H206.002C200.018 301 195.634 299.624 192.85 296.872C190.066 294.088 188.674 289.72 188.674 283.768V272.92C188.674 266.872 190.066 262.472 192.85 259.72C195.634 256.936 200.018 255.576 206.002 255.64H213.874C219.858 255.64 224.226 257.032 226.978 259.816C229.762 262.568 231.154 266.936 231.154 272.92V277.72C231.154 279.416 230.322 280.264 228.658 280.264H193.714ZM206.002 260.68C201.426 260.616 198.226 261.496 196.402 263.32C194.61 265.112 193.714 268.312 193.714 272.92V275.224H226.114V272.92C226.114 268.344 225.218 265.16 223.426 263.368C221.634 261.576 218.45 260.68 213.874 260.68H206.002ZM251.99 300.904C248.054 300.904 245.046 300.072 242.966 298.408C240.886 296.712 239.638 294.136 239.222 290.68C239.126 289.848 239.302 289.208 239.75 288.76C240.198 288.28 240.854 288.04 241.718 288.04C242.518 288.04 243.11 288.248 243.494 288.664C243.91 289.08 244.182 289.704 244.31 290.536C244.598 292.52 245.318 293.912 246.47 294.712C247.654 295.48 249.494 295.864 251.99 295.864H267.734C270.71 295.864 272.758 295.304 273.878 294.184C274.998 293.064 275.558 291.016 275.558 288.04C275.558 285.032 274.998 282.968 273.878 281.848C272.758 280.728 270.71 280.168 267.734 280.168H252.182C248.022 280.168 244.918 279.176 242.87 277.192C240.854 275.176 239.846 272.088 239.846 267.928C239.846 263.672 240.854 260.552 242.87 258.568C244.886 256.552 247.99 255.544 252.182 255.544H267.254C274.486 255.544 278.502 258.744 279.302 265.144C279.43 265.976 279.254 266.632 278.774 267.112C278.326 267.56 277.686 267.784 276.854 267.784C276.054 267.784 275.446 267.576 275.03 267.16C274.646 266.744 274.374 266.136 274.214 265.336C273.99 263.544 273.334 262.312 272.246 261.64C271.19 260.936 269.526 260.584 267.254 260.584H252.182C249.398 260.584 247.478 261.096 246.422 262.12C245.398 263.144 244.886 265.08 244.886 267.928C244.886 270.648 245.414 272.536 246.47 273.592C247.526 274.616 249.43 275.128 252.182 275.128H267.734C272.15 275.128 275.398 276.184 277.478 278.296C279.558 280.376 280.598 283.624 280.598 288.04C280.598 292.424 279.558 295.672 277.478 297.784C275.398 299.864 272.15 300.904 267.734 300.904H251.99ZM299.855 300.904C295.919 300.904 292.911 300.072 290.831 298.408C288.751 296.712 287.503 294.136 287.087 290.68C286.991 289.848 287.167 289.208 287.615 288.76C288.063 288.28 288.719 288.04 289.583 288.04C290.383 288.04 290.975 288.248 291.359 288.664C291.775 289.08 292.047 289.704 292.175 290.536C292.463 292.52 293.183 293.912 294.335 294.712C295.519 295.48 297.359 295.864 299.855 295.864H315.599C318.575 295.864 320.623 295.304 321.743 294.184C322.863 293.064 323.423 291.016 323.423 288.04C323.423 285.032 322.863 282.968 321.743 281.848C320.623 280.728 318.575 280.168 315.599 280.168H300.047C295.887 280.168 292.783 279.176 290.735 277.192C288.719 275.176 287.711 272.088 287.711 267.928C287.711 263.672 288.719 260.552 290.735 258.568C292.751 256.552 295.855 255.544 300.047 255.544H315.119C322.351 255.544 326.367 258.744 327.167 265.144C327.295 265.976 327.119 266.632 326.639 267.112C326.191 267.56 325.551 267.784 324.719 267.784C323.919 267.784 323.311 267.576 322.895 267.16C322.511 266.744 322.239 266.136 322.079 265.336C321.855 263.544 321.199 262.312 320.111 261.64C319.055 260.936 317.391 260.584 315.119 260.584H300.047C297.263 260.584 295.343 261.096 294.287 262.12C293.263 263.144 292.751 265.08 292.751 267.928C292.751 270.648 293.279 272.536 294.335 273.592C295.391 274.616 297.295 275.128 300.047 275.128H315.599C320.015 275.128 323.263 276.184 325.343 278.296C327.423 280.376 328.463 283.624 328.463 288.04C328.463 292.424 327.423 295.672 325.343 297.784C323.263 299.864 320.015 300.904 315.599 300.904H299.855ZM356.312 301C350.424 301 346.12 299.64 343.4 296.92C340.68 294.2 339.32 289.912 339.32 284.056V260.68H333.608C331.912 260.68 331.064 259.832 331.064 258.136C331.064 256.472 331.912 255.64 333.608 255.64H339.32V245.32C339.32 243.624 340.152 242.776 341.816 242.776C343.512 242.776 344.36 243.624 344.36 245.32V255.64H356.408C358.072 255.64 358.904 256.472 358.904 258.136C358.904 259.832 358.072 260.68 356.408 260.68H344.36V284.056C344.36 288.536 345.224 291.64 346.952 293.368C348.712 295.096 351.832 295.96 356.312 295.96C357.24 295.96 357.896 296.168 358.28 296.584C358.696 297 358.904 297.624 358.904 298.456C358.904 300.152 358.04 301 356.312 301ZM366.331 280.264V283.768C366.331 288.28 367.227 291.448 369.019 293.272C370.843 295.064 374.043 295.96 378.619 295.96H386.491C390.523 295.96 393.451 295.448 395.275 294.424C397.131 293.368 398.235 291.56 398.587 289C398.715 288.2 398.971 287.592 399.355 287.176C399.771 286.76 400.395 286.552 401.227 286.552C402.059 286.552 402.683 286.792 403.099 287.272C403.547 287.72 403.723 288.36 403.627 289.192C403.211 293.224 401.595 296.2 398.779 298.12C395.963 300.04 391.867 301 386.491 301H378.619C372.635 301 368.251 299.624 365.467 296.872C362.683 294.088 361.291 289.72 361.291 283.768V272.92C361.291 266.872 362.683 262.472 365.467 259.72C368.251 256.936 372.635 255.576 378.619 255.64H386.491C392.475 255.64 396.843 257.032 399.595 259.816C402.379 262.568 403.771 266.936 403.771 272.92V277.72C403.771 279.416 402.939 280.264 401.275 280.264H366.331ZM378.619 260.68C374.043 260.616 370.843 261.496 369.019 263.32C367.227 265.112 366.331 268.312 366.331 272.92V275.224H398.731V272.92C398.731 268.344 397.835 265.16 396.043 263.368C394.251 261.576 391.067 260.68 386.491 260.68H378.619ZM424.606 300.904C420.67 300.904 417.662 300.072 415.582 298.408C413.502 296.712 412.254 294.136 411.838 290.68C411.742 289.848 411.918 289.208 412.366 288.76C412.814 288.28 413.47 288.04 414.334 288.04C415.134 288.04 415.726 288.248 416.11 288.664C416.526 289.08 416.798 289.704 416.926 290.536C417.214 292.52 417.934 293.912 419.086 294.712C420.27 295.48 422.11 295.864 424.606 295.864H440.35C443.326 295.864 445.374 295.304 446.494 294.184C447.614 293.064 448.174 291.016 448.174 288.04C448.174 285.032 447.614 282.968 446.494 281.848C445.374 280.728 443.326 280.168 440.35 280.168H424.798C420.638 280.168 417.534 279.176 415.486 277.192C413.47 275.176 412.462 272.088 412.462 267.928C412.462 263.672 413.47 260.552 415.486 258.568C417.502 256.552 420.606 255.544 424.798 255.544H439.87C447.102 255.544 451.118 258.744 451.918 265.144C452.046 265.976 451.87 266.632 451.39 267.112C450.942 267.56 450.302 267.784 449.47 267.784C448.67 267.784 448.062 267.576 447.646 267.16C447.262 266.744 446.99 266.136 446.83 265.336C446.606 263.544 445.95 262.312 444.862 261.64C443.806 260.936 442.142 260.584 439.87 260.584H424.798C422.014 260.584 420.094 261.096 419.038 262.12C418.014 263.144 417.502 265.08 417.502 267.928C417.502 270.648 418.03 272.536 419.086 273.592C420.142 274.616 422.046 275.128 424.798 275.128H440.35C444.766 275.128 448.014 276.184 450.094 278.296C452.174 280.376 453.214 283.624 453.214 288.04C453.214 292.424 452.174 295.672 450.094 297.784C448.014 299.864 444.766 300.904 440.35 300.904H424.606ZM481.063 301C475.175 301 470.871 299.64 468.151 296.92C465.431 294.2 464.071 289.912 464.071 284.056V260.68H458.359C456.663 260.68 455.815 259.832 455.815 258.136C455.815 256.472 456.663 255.64 458.359 255.64H464.071V245.32C464.071 243.624 464.903 242.776 466.567 242.776C468.263 242.776 469.111 243.624 469.111 245.32V255.64H481.159C482.823 255.64 483.655 256.472 483.655 258.136C483.655 259.832 482.823 260.68 481.159 260.68H469.111V284.056C469.111 288.536 469.975 291.64 471.703 293.368C473.463 295.096 476.583 295.96 481.063 295.96C481.991 295.96 482.647 296.168 483.031 296.584C483.447 297 483.655 297.624 483.655 298.456C483.655 300.152 482.791 301 481.063 301Z" fill="black"/>
<path d="M59.3259 341C58.8219 341 58.4439 340.874 58.1919 340.622C57.9399 340.37 57.8139 339.992 57.8139 339.488V319.652H50.8299C50.3259 319.652 49.9479 319.526 49.6959 319.274C49.4439 319.022 49.3179 318.644 49.3179 318.14C49.3179 317.636 49.4439 317.258 49.6959 317.006C49.9479 316.754 50.3259 316.628 50.8299 316.628H67.8219C68.3259 316.628 68.7039 316.754 68.9559 317.006C69.2079 317.258 69.3339 317.636 69.3339 318.14C69.3339 318.644 69.2079 319.022 68.9559 319.274C68.7039 319.526 68.3259 319.652 67.8219 319.652H60.8379V339.488C60.8379 339.968 60.7059 340.34 60.4419 340.604C60.1899 340.868 59.8179 341 59.3259 341ZM72.4032 341C71.3952 341 70.8912 340.496 70.8912 339.488V318.104C70.8912 317.096 71.3952 316.592 72.4032 316.592H85.3272C86.3352 316.592 86.8392 317.096 86.8392 318.104C86.8392 319.112 86.3352 319.616 85.3272 319.616H73.9152V327.176H81.0792C82.0872 327.176 82.5912 327.68 82.5912 328.688C82.5912 329.696 82.0872 330.2 81.0792 330.2H73.9152V337.976H85.3272C86.3352 337.976 86.8392 338.48 86.8392 339.488C86.8392 340.496 86.3352 341 85.3272 341H72.4032ZM95.4446 341C93.3926 341 91.7906 340.586 90.6386 339.758C89.4986 338.93 88.7846 337.652 88.4966 335.924C88.4486 335.396 88.5566 335 88.8206 334.736C89.0846 334.472 89.4686 334.34 89.9726 334.34C90.4766 334.34 90.8426 334.46 91.0706 334.7C91.3106 334.94 91.4726 335.312 91.5566 335.816C91.7366 336.644 92.1206 337.214 92.7086 337.526C93.3086 337.826 94.2206 337.976 95.4446 337.976H100.629C102.177 337.976 103.227 337.7 103.779 337.148C104.343 336.584 104.625 335.54 104.625 334.016C104.625 332.468 104.337 331.412 103.761 330.848C103.185 330.272 102.141 329.984 100.629 329.984H96.1646C93.8966 329.984 92.2106 329.432 91.1066 328.328C90.0146 327.212 89.4686 325.52 89.4686 323.252C89.4686 320.996 90.0086 319.322 91.0886 318.23C92.1806 317.138 93.8606 316.592 96.1286 316.592H100.413C102.321 316.592 103.815 316.982 104.895 317.762C105.987 318.542 106.677 319.736 106.965 321.344C107.037 321.86 106.941 322.256 106.677 322.532C106.413 322.796 106.017 322.928 105.489 322.928C105.009 322.928 104.649 322.802 104.409 322.55C104.169 322.298 104.013 321.932 103.941 321.452C103.749 320.744 103.383 320.264 102.843 320.012C102.303 319.748 101.493 319.616 100.413 319.616H96.1286C94.6886 319.616 93.7226 319.874 93.2306 320.39C92.7386 320.894 92.4926 321.848 92.4926 323.252C92.4926 324.668 92.7446 325.64 93.2486 326.168C93.7526 326.696 94.7246 326.96 96.1646 326.96H100.629C102.993 326.96 104.751 327.536 105.903 328.688C107.067 329.84 107.649 331.616 107.649 334.016C107.649 336.404 107.073 338.168 105.921 339.308C104.769 340.436 103.005 341 100.629 341H95.4446ZM116.543 341C116.039 341 115.661 340.874 115.409 340.622C115.157 340.37 115.031 339.992 115.031 339.488V319.652H108.047C107.543 319.652 107.165 319.526 106.913 319.274C106.661 319.022 106.535 318.644 106.535 318.14C106.535 317.636 106.661 317.258 106.913 317.006C107.165 316.754 107.543 316.628 108.047 316.628H125.039C125.543 316.628 125.921 316.754 126.173 317.006C126.425 317.258 126.551 317.636 126.551 318.14C126.551 318.644 126.425 319.022 126.173 319.274C125.921 319.526 125.543 319.652 125.039 319.652H118.055V339.488C118.055 339.968 117.923 340.34 117.659 340.604C117.407 340.868 117.035 341 116.543 341ZM137.701 341C136.693 341 136.189 340.496 136.189 339.488V318.104C136.189 317.096 136.693 316.592 137.701 316.592H150.949C151.417 316.592 151.783 316.73 152.047 317.006C152.323 317.27 152.461 317.636 152.461 318.104C152.461 319.112 151.957 319.616 150.949 319.616H139.213V327.176H146.449C147.457 327.176 147.961 327.68 147.961 328.688C147.961 329.696 147.457 330.2 146.449 330.2H139.213V339.488C139.213 340.496 138.709 341 137.701 341ZM148.918 340.856C147.958 340.484 147.67 339.824 148.054 338.876L156.622 317.78C156.982 316.988 157.546 316.592 158.314 316.592H158.386C159.166 316.628 159.694 317.024 159.97 317.78L168.682 338.876C169.066 339.824 168.79 340.484 167.854 340.856C166.906 341.228 166.246 340.952 165.874 340.028L163.93 335.312H152.716L150.862 340.028C150.49 340.964 149.842 341.24 148.918 340.856ZM153.904 332.288H162.688L158.206 321.38L153.904 332.288ZM175.819 341C173.767 341 172.165 340.586 171.013 339.758C169.873 338.93 169.159 337.652 168.871 335.924C168.823 335.396 168.931 335 169.195 334.736C169.459 334.472 169.843 334.34 170.347 334.34C170.851 334.34 171.217 334.46 171.445 334.7C171.685 334.94 171.847 335.312 171.931 335.816C172.111 336.644 172.495 337.214 173.083 337.526C173.683 337.826 174.595 337.976 175.819 337.976H181.003C182.551 337.976 183.601 337.7 184.153 337.148C184.717 336.584 184.999 335.54 184.999 334.016C184.999 332.468 184.711 331.412 184.135 330.848C183.559 330.272 182.515 329.984 181.003 329.984H176.539C174.271 329.984 172.585 329.432 171.481 328.328C170.389 327.212 169.843 325.52 169.843 323.252C169.843 320.996 170.383 319.322 171.463 318.23C172.555 317.138 174.235 316.592 176.503 316.592H180.787C182.695 316.592 184.189 316.982 185.269 317.762C186.361 318.542 187.051 319.736 187.339 321.344C187.411 321.86 187.315 322.256 187.051 322.532C186.787 322.796 186.391 322.928 185.863 322.928C185.383 322.928 185.023 322.802 184.783 322.55C184.543 322.298 184.387 321.932 184.315 321.452C184.123 320.744 183.757 320.264 183.217 320.012C182.677 319.748 181.867 319.616 180.787 319.616H176.503C175.063 319.616 174.097 319.874 173.605 320.39C173.113 320.894 172.867 321.848 172.867 323.252C172.867 324.668 173.119 325.64 173.623 326.168C174.127 326.696 175.099 326.96 176.539 326.96H181.003C183.367 326.96 185.125 327.536 186.277 328.688C187.441 329.84 188.023 331.616 188.023 334.016C188.023 336.404 187.447 338.168 186.295 339.308C185.143 340.436 183.379 341 181.003 341H175.819ZM196.918 341C196.414 341 196.036 340.874 195.784 340.622C195.532 340.37 195.406 339.992 195.406 339.488V319.652H188.422C187.918 319.652 187.54 319.526 187.288 319.274C187.036 319.022 186.91 318.644 186.91 318.14C186.91 317.636 187.036 317.258 187.288 317.006C187.54 316.754 187.918 316.628 188.422 316.628H205.414C205.918 316.628 206.296 316.754 206.548 317.006C206.8 317.258 206.926 317.636 206.926 318.14C206.926 318.644 206.8 319.022 206.548 319.274C206.296 319.526 205.918 319.652 205.414 319.652H198.43V339.488C198.43 339.968 198.298 340.34 198.034 340.604C197.782 340.868 197.41 341 196.918 341ZM209.995 341C208.987 341 208.483 340.496 208.483 339.488V318.104C208.483 317.096 208.987 316.592 209.995 316.592H222.919C223.927 316.592 224.431 317.096 224.431 318.104C224.431 319.112 223.927 319.616 222.919 319.616H211.507V327.176H218.671C219.679 327.176 220.183 327.68 220.183 328.688C220.183 329.696 219.679 330.2 218.671 330.2H211.507V337.976H222.919C223.927 337.976 224.431 338.48 224.431 339.488C224.431 340.496 223.927 341 222.919 341H209.995ZM242.63 341.072C242.234 341.324 241.856 341.402 241.496 341.306C241.136 341.21 240.83 340.964 240.578 340.568L234.998 331.28H229.958V339.488C229.958 340.496 229.454 341 228.446 341C227.438 341 226.934 340.496 226.934 339.488V318.104C226.934 317.096 227.438 316.592 228.446 316.592H236.87C239.066 316.592 240.746 317.18 241.91 318.356C243.086 319.52 243.674 321.2 243.674 323.396V324.476C243.674 326.384 243.23 327.908 242.342 329.048C241.454 330.176 240.17 330.878 238.49 331.154L243.206 339.02C243.662 339.86 243.47 340.544 242.63 341.072ZM229.958 328.256H236.87C238.238 328.256 239.21 327.968 239.786 327.392C240.362 326.816 240.65 325.844 240.65 324.476V323.396C240.65 322.04 240.362 321.074 239.786 320.498C239.21 319.91 238.238 319.616 236.87 319.616H229.958V328.256ZM261.583 341C261.079 341 260.701 340.874 260.449 340.622C260.197 340.37 260.071 339.992 260.071 339.488V319.652H253.087C252.583 319.652 252.205 319.526 251.953 319.274C251.701 319.022 251.575 318.644 251.575 318.14C251.575 317.636 251.701 317.258 251.953 317.006C252.205 316.754 252.583 316.628 253.087 316.628H270.079C270.583 316.628 270.961 316.754 271.213 317.006C271.465 317.258 271.591 317.636 271.591 318.14C271.591 318.644 271.465 319.022 271.213 319.274C270.961 319.526 270.583 319.652 270.079 319.652H263.095V339.488C263.095 339.968 262.963 340.34 262.699 340.604C262.447 340.868 262.075 341 261.583 341ZM274.66 341C274.264 341 273.91 340.85 273.598 340.55C273.298 340.238 273.148 339.884 273.148 339.488V318.104C273.148 317.708 273.298 317.36 273.598 317.06C273.91 316.748 274.264 316.592 274.66 316.592C275.056 316.592 275.404 316.748 275.704 317.06C276.016 317.36 276.172 317.708 276.172 318.104V327.14H290.86V318.104C290.86 317.708 291.01 317.36 291.31 317.06C291.61 316.748 291.964 316.592 292.372 316.592C292.768 316.592 293.116 316.748 293.416 317.06C293.728 317.36 293.884 317.708 293.884 318.104V339.488C293.884 339.884 293.728 340.238 293.416 340.55C293.116 340.85 292.768 341 292.372 341C291.964 341 291.61 340.85 291.31 340.55C291.01 340.238 290.86 339.884 290.86 339.488V330.164H276.172V339.488C276.172 339.884 276.016 340.238 275.704 340.55C275.404 340.85 275.056 341 274.66 341ZM296.986 340.856C296.026 340.484 295.738 339.824 296.122 338.876L304.69 317.78C305.05 316.988 305.614 316.592 306.382 316.592H306.454C307.234 316.628 307.762 317.024 308.038 317.78L316.75 338.876C317.134 339.824 316.858 340.484 315.922 340.856C314.974 341.228 314.314 340.952 313.942 340.028L311.998 335.312H300.784L298.93 340.028C298.558 340.964 297.91 341.24 296.986 340.856ZM301.972 332.288H310.756L306.274 321.38L301.972 332.288ZM320.387 341C319.379 341 318.875 340.496 318.875 339.488V318.104C318.875 317.096 319.379 316.592 320.387 316.592C320.903 316.592 321.407 316.892 321.899 317.492L336.371 336.14H335.615V318.104C335.615 317.096 336.119 316.592 337.127 316.592C338.135 316.592 338.639 317.096 338.639 318.104V339.488C338.639 340.496 338.135 341 337.127 341C336.587 341 336.083 340.7 335.615 340.1L321.143 321.452H321.899V339.488C321.899 340.496 321.395 341 320.387 341ZM352.473 341C351.465 341 350.961 340.496 350.961 339.488V318.104C350.961 317.096 351.465 316.592 352.473 316.592C353.481 316.592 353.985 317.096 353.985 318.104V337.976H363.957C364.965 337.976 365.469 338.48 365.469 339.488C365.469 340.496 364.965 341 363.957 341H352.473ZM368.71 341C368.194 341 367.81 340.88 367.558 340.64C367.318 340.388 367.198 340.004 367.198 339.488V318.14C367.198 317.612 367.318 317.228 367.558 316.988C367.81 316.748 368.194 316.628 368.71 316.628C369.238 316.628 369.622 316.748 369.862 316.988C370.102 317.228 370.222 317.612 370.222 318.14V339.488C370.222 340.004 370.102 340.388 369.862 340.64C369.622 340.88 369.238 341 368.71 341ZM381.67 341C378.922 341 376.888 340.346 375.568 339.038C374.26 337.718 373.606 335.684 373.606 332.936V324.656C373.606 321.884 374.26 319.844 375.568 318.536C376.876 317.216 378.898 316.568 381.634 316.592H385.99C388.246 316.592 389.968 317.06 391.156 317.996C392.344 318.92 393.034 320.384 393.226 322.388C393.298 322.892 393.202 323.276 392.938 323.54C392.674 323.804 392.29 323.936 391.786 323.936C390.874 323.936 390.346 323.432 390.202 322.424C390.082 321.32 389.698 320.576 389.05 320.192C388.414 319.808 387.394 319.616 385.99 319.616H381.634C380.362 319.604 379.36 319.748 378.628 320.048C377.908 320.348 377.392 320.87 377.08 321.614C376.78 322.346 376.63 323.36 376.63 324.656V332.936C376.63 334.22 376.78 335.228 377.08 335.96C377.392 336.692 377.914 337.214 378.646 337.526C379.378 337.826 380.386 337.976 381.67 337.976H385.99C387.106 337.976 387.976 337.856 388.6 337.616C389.236 337.364 389.68 336.926 389.932 336.302C390.184 335.678 390.31 334.796 390.31 333.656V331.964L387.502 331.928C386.494 331.928 385.99 331.424 385.99 330.416C385.99 329.408 386.494 328.904 387.502 328.904L391.822 328.94C392.83 328.94 393.334 329.444 393.334 330.452V333.656C393.334 336.212 392.74 338.078 391.552 339.254C390.364 340.418 388.51 341 385.99 341H381.67ZM397.878 341C397.482 341 397.128 340.85 396.816 340.55C396.516 340.238 396.366 339.884 396.366 339.488V318.104C396.366 317.708 396.516 317.36 396.816 317.06C397.128 316.748 397.482 316.592 397.878 316.592C398.274 316.592 398.622 316.748 398.922 317.06C399.234 317.36 399.39 317.708 399.39 318.104V327.14H414.078V318.104C414.078 317.708 414.228 317.36 414.528 317.06C414.828 316.748 415.182 316.592 415.59 316.592C415.986 316.592 416.334 316.748 416.634 317.06C416.946 317.36 417.102 317.708 417.102 318.104V339.488C417.102 339.884 416.946 340.238 416.634 340.55C416.334 340.85 415.986 341 415.59 341C415.182 341 414.828 340.85 414.528 340.55C414.228 340.238 414.078 339.884 414.078 339.488V330.164H399.39V339.488C399.39 339.884 399.234 340.238 398.922 340.55C398.622 340.85 398.274 341 397.878 341ZM428.665 341C428.161 341 427.783 340.874 427.531 340.622C427.279 340.37 427.153 339.992 427.153 339.488V319.652H420.169C419.665 319.652 419.287 319.526 419.035 319.274C418.783 319.022 418.657 318.644 418.657 318.14C418.657 317.636 418.783 317.258 419.035 317.006C419.287 316.754 419.665 316.628 420.169 316.628H437.161C437.665 316.628 438.043 316.754 438.295 317.006C438.547 317.258 438.673 317.636 438.673 318.14C438.673 318.644 438.547 319.022 438.295 319.274C438.043 319.526 437.665 319.652 437.161 319.652H430.177V339.488C430.177 339.968 430.045 340.34 429.781 340.604C429.529 340.868 429.157 341 428.665 341Z" fill="#FF5722"/>
</svg>
